<mxfile host="65bd71144e">
    <diagram id="bRQXa4VOCGz4W1reD0Dk" name="第 1 页">
        <mxGraphModel dx="734" dy="469" grid="1" gridSize="10" guides="1" tooltips="1" connect="1" arrows="1" fold="1" page="1" pageScale="1" pageWidth="827" pageHeight="1169" math="0" shadow="0">
            <root>
                <mxCell id="0"/>
                <mxCell id="1" parent="0"/>
                <mxCell id="20" value="" style="rounded=0;whiteSpace=wrap;html=1;" vertex="1" parent="1">
                    <mxGeometry x="320" y="300" width="360" height="230" as="geometry"/>
                </mxCell>
                <mxCell id="29" value="" style="group" vertex="1" connectable="0" parent="1">
                    <mxGeometry x="340" y="330" width="300" height="70" as="geometry"/>
                </mxCell>
                <mxCell id="23" value="" style="rounded=0;whiteSpace=wrap;html=1;" vertex="1" parent="29">
                    <mxGeometry width="300" height="70" as="geometry"/>
                </mxCell>
                <mxCell id="24" value="" style="ellipse;whiteSpace=wrap;html=1;aspect=fixed;" vertex="1" parent="29">
                    <mxGeometry y="12.73" width="37.27" height="37.27" as="geometry"/>
                </mxCell>
                <mxCell id="25" value="昵称" style="rounded=0;whiteSpace=wrap;html=1;" vertex="1" parent="29">
                    <mxGeometry x="44.28571428571429" y="6.363636363636364" width="127.14285714285714" height="12.727272727272728" as="geometry"/>
                </mxCell>
                <mxCell id="26" value="评价内容" style="rounded=0;whiteSpace=wrap;html=1;" vertex="1" parent="29">
                    <mxGeometry x="44.28571428571429" y="25.454545454545457" width="142.85714285714283" height="19.090909090909093" as="geometry"/>
                </mxCell>
                <mxCell id="27" value="时间" style="rounded=0;whiteSpace=wrap;html=1;" vertex="1" parent="29">
                    <mxGeometry x="44.28571428571429" y="50.909090909090914" width="48.57142857142857" height="12.727272727272728" as="geometry"/>
                </mxCell>
                <mxCell id="28" value="点赞" style="rhombus;whiteSpace=wrap;html=1;" vertex="1" parent="29">
                    <mxGeometry x="230" y="6.36" width="40" height="29.09" as="geometry"/>
                </mxCell>
                <mxCell id="31" value="" style="group" vertex="1" connectable="0" parent="1">
                    <mxGeometry x="390" y="420" width="250" height="60" as="geometry"/>
                </mxCell>
                <mxCell id="32" value="" style="rounded=0;whiteSpace=wrap;html=1;" vertex="1" parent="31">
                    <mxGeometry width="250" height="60" as="geometry"/>
                </mxCell>
                <mxCell id="33" value="" style="ellipse;whiteSpace=wrap;html=1;aspect=fixed;" vertex="1" parent="31">
                    <mxGeometry y="10.911428571428571" width="26.621428571428574" height="26.621428571428574" as="geometry"/>
                </mxCell>
                <mxCell id="34" value="昵称" style="rounded=0;whiteSpace=wrap;html=1;" vertex="1" parent="31">
                    <mxGeometry x="36.90476190476191" y="5.454545454545455" width="105.95238095238095" height="10.90909090909091" as="geometry"/>
                </mxCell>
                <mxCell id="35" value="评价内容" style="rounded=0;whiteSpace=wrap;html=1;" vertex="1" parent="31">
                    <mxGeometry x="36.90476190476191" y="21.81818181818182" width="119.04761904761904" height="16.363636363636363" as="geometry"/>
                </mxCell>
                <mxCell id="36" value="时间" style="rounded=0;whiteSpace=wrap;html=1;" vertex="1" parent="31">
                    <mxGeometry x="36.90476190476191" y="43.63636363636364" width="40.476190476190474" height="10.90909090909091" as="geometry"/>
                </mxCell>
                <mxCell id="37" value="点赞" style="rhombus;whiteSpace=wrap;html=1;" vertex="1" parent="31">
                    <mxGeometry x="190.48" y="5.45" width="39.52" height="34.55" as="geometry"/>
                </mxCell>
                <mxCell id="38" value="展开n条回复" style="rounded=0;whiteSpace=wrap;html=1;" vertex="1" parent="1">
                    <mxGeometry x="420" y="500" width="123" height="20" as="geometry"/>
                </mxCell>
            </root>
        </mxGraphModel>
    </diagram>
</mxfile>